<svg xmlns="http://www.w3.org/2000/svg" viewBox="0 0 980 600" role="img"><title>The shortest route is not the fewest edges.</title><desc>DIJKSTRA · directed edges · nonnegative weights 1 → 3 → 2 → 4 → 5     Total cost: 2 + 3 + 1 + 2 = 8</desc><defs><marker id="arrow" viewBox="0 0 10 10" refX="9" refY="5" markerWidth="5" markerHeight="5" orient="auto-start-reverse"><path d="M0 0L10 5L0 10Z" fill="#2363df"/></marker><marker id="muted" viewBox="0 0 10 10" refX="9" refY="5" markerWidth="5" markerHeight="5" orient="auto-start-reverse"><path d="M0 0L10 5L0 10Z" fill="#a4b7d1"/></marker></defs><rect width="980" height="600" fill="#f1f6ff"/><g font-family="Arial,Helvetica,sans-serif"><text x="48" y="59" font-size="32" fill="#102745" font-weight="700" text-anchor="start">The shortest route is not the fewest edges.</text><text x="48" y="94" font-size="19" fill="#536c8c" font-weight="400" text-anchor="start">DIJKSTRA · directed edges · nonnegative weights</text><path d="M138.6 282.1L328.6 209.0" fill="none" stroke="#a4b7d1" stroke-width="3" marker-end="url(#muted)"/><rect x="216.0" y="226.0" width="38" height="38" rx="8" fill="#f1f6ff" stroke="#f1f6ff" stroke-width="2"/><text x="235.0" y="253.0" font-size="24" fill="#a4b7d1" font-weight="700" text-anchor="middle">7</text><path d="M137.9 309.6L329.3 394.2" fill="none" stroke="#2363df" stroke-width="5" marker-end="url(#arrow)"/><rect x="216.0" y="333.5" width="38" height="38" rx="8" fill="#f1f6ff" stroke="#f1f6ff" stroke-width="2"/><text x="235.0" y="360.5" font-size="24" fill="#2363df" font-weight="700" text-anchor="middle">2</text><path d="M365.0 374.0L365.0 234.0" fill="none" stroke="#2363df" stroke-width="5" marker-end="url(#arrow)"/><rect x="346.0" y="283.5" width="38" height="38" rx="8" fill="#f1f6ff" stroke="#f1f6ff" stroke-width="2"/><text x="365.0" y="310.5" font-size="24" fill="#2363df" font-weight="700" text-anchor="middle">3</text><path d="M401.0 195.0L586.0 195.0" fill="none" stroke="#2363df" stroke-width="5" marker-end="url(#arrow)"/><rect x="476.0" y="176.0" width="38" height="38" rx="8" fill="#f1f6ff" stroke="#f1f6ff" stroke-width="2"/><text x="495.0" y="203.0" font-size="24" fill="#2363df" font-weight="700" text-anchor="middle">1</text><path d="M400.6 404.9L811.4 345.6" fill="none" stroke="#a4b7d1" stroke-width="3" marker-end="url(#muted)"/><rect x="588.5" y="356.0" width="38" height="38" rx="8" fill="#f1f6ff" stroke="#f1f6ff" stroke-width="2"/><text x="607.5" y="383.0" font-size="24" fill="#a4b7d1" font-weight="700" text-anchor="middle">9</text><path d="M655.3 214.5L817.2 318.9" fill="none" stroke="#2363df" stroke-width="5" marker-end="url(#arrow)"/><rect x="718.5" y="248.5" width="38" height="38" rx="8" fill="#f1f6ff" stroke="#f1f6ff" stroke-width="2"/><text x="737.5" y="275.5" font-size="24" fill="#2363df" font-weight="700" text-anchor="middle">2</text><circle cx="105" cy="295" r="34" fill="#fff" stroke="#2363df" stroke-width="3"/><text x="105" y="304" font-size="27" fill="#163668" font-weight="700" text-anchor="middle">1</text><text x="105" y="359" font-size="18" fill="#4d6686" font-weight="400" text-anchor="middle">d = 0</text><circle cx="365" cy="195" r="34" fill="#fff" stroke="#2363df" stroke-width="3"/><text x="365" y="204" font-size="27" fill="#163668" font-weight="700" text-anchor="middle">2</text><text x="365" y="259" font-size="18" fill="#4d6686" font-weight="400" text-anchor="middle">d = 5</text><circle cx="365" cy="410" r="34" fill="#fff" stroke="#2363df" stroke-width="3"/><text x="365" y="419" font-size="27" fill="#163668" font-weight="700" text-anchor="middle">3</text><text x="365" y="474" font-size="18" fill="#4d6686" font-weight="400" text-anchor="middle">d = 2</text><circle cx="625" cy="195" r="34" fill="#fff" stroke="#2363df" stroke-width="3"/><text x="625" y="204" font-size="27" fill="#163668" font-weight="700" text-anchor="middle">4</text><text x="625" y="259" font-size="18" fill="#4d6686" font-weight="400" text-anchor="middle">d = 6</text><circle cx="850" cy="340" r="34" fill="#fff" stroke="#2363df" stroke-width="3"/><text x="850" y="349" font-size="27" fill="#163668" font-weight="700" text-anchor="middle">5</text><text x="850" y="404" font-size="18" fill="#4d6686" font-weight="400" text-anchor="middle">d = 8</text><path d="M48 518H932" stroke="#d5e0f0"/><text x="48" y="557" font-size="20" fill="#244368" font-weight="400" text-anchor="start">1 → 3 → 2 → 4 → 5     Total cost: 2 + 3 + 1 + 2 = 8</text></g></svg>